<mxfile host="app.diagrams.net" agent="Mozilla/5.0 (Windows NT 10.0; Win64; x64) AppleWebKit/537.36 (KHTML, like Gecko) Chrome/128.0.0.0 YaBrowser/24.10.0.0 Safari/537.36" version="24.8.9">
  <diagram name="Page-1" id="-H_mtQnk-PTXWXPvYvuk">
    <mxGraphModel dx="1012" dy="592" grid="1" gridSize="10" guides="1" tooltips="1" connect="1" arrows="1" fold="1" page="1" pageScale="1" pageWidth="1169" pageHeight="827" math="0" shadow="0">
      <root>
        <mxCell id="0" />
        <mxCell id="1" parent="0" />
        <mxCell id="quuRfxYI1Brjr8cdpD_s-44" value="" style="rounded=0;whiteSpace=wrap;html=1;rotation=-90;" vertex="1" parent="1">
          <mxGeometry x="22.5" y="272.5" width="535" height="160" as="geometry" />
        </mxCell>
        <mxCell id="zA23MoTUsTF4_91t8viU-2" value="MongoDB" style="shape=cylinder3;whiteSpace=wrap;html=1;boundedLbl=1;backgroundOutline=1;size=15;" parent="1" vertex="1">
          <mxGeometry x="920" y="210" width="60" height="80" as="geometry" />
        </mxCell>
        <mxCell id="uGlacwfJj0JokIyBRGli-6" style="edgeStyle=orthogonalEdgeStyle;rounded=0;orthogonalLoop=1;jettySize=auto;html=1;entryX=0.5;entryY=0;entryDx=0;entryDy=0;" parent="1" source="zA23MoTUsTF4_91t8viU-3" target="uGlacwfJj0JokIyBRGli-5" edge="1">
          <mxGeometry relative="1" as="geometry" />
        </mxCell>
        <mxCell id="zA23MoTUsTF4_91t8viU-3" value="pymongo-api" style="rounded=1;whiteSpace=wrap;html=1;" parent="1" vertex="1">
          <mxGeometry x="240" y="270" width="120" height="60" as="geometry" />
        </mxCell>
        <mxCell id="quuRfxYI1Brjr8cdpD_s-11" style="edgeStyle=orthogonalEdgeStyle;rounded=0;orthogonalLoop=1;jettySize=auto;html=1;" edge="1" parent="1" source="uGlacwfJj0JokIyBRGli-3" target="quuRfxYI1Brjr8cdpD_s-2">
          <mxGeometry relative="1" as="geometry" />
        </mxCell>
        <mxCell id="quuRfxYI1Brjr8cdpD_s-12" style="edgeStyle=orthogonalEdgeStyle;rounded=0;orthogonalLoop=1;jettySize=auto;html=1;entryX=0;entryY=0.5;entryDx=0;entryDy=0;" edge="1" parent="1" source="uGlacwfJj0JokIyBRGli-3" target="quuRfxYI1Brjr8cdpD_s-4">
          <mxGeometry relative="1" as="geometry">
            <Array as="points">
              <mxPoint x="610" y="390" />
            </Array>
          </mxGeometry>
        </mxCell>
        <mxCell id="quuRfxYI1Brjr8cdpD_s-15" style="edgeStyle=orthogonalEdgeStyle;rounded=0;orthogonalLoop=1;jettySize=auto;html=1;entryX=0;entryY=0.5;entryDx=0;entryDy=0;" edge="1" parent="1" source="uGlacwfJj0JokIyBRGli-3" target="quuRfxYI1Brjr8cdpD_s-3">
          <mxGeometry relative="1" as="geometry">
            <Array as="points">
              <mxPoint x="610" y="560" />
            </Array>
          </mxGeometry>
        </mxCell>
        <mxCell id="uGlacwfJj0JokIyBRGli-3" value="shard1" style="rounded=1;whiteSpace=wrap;html=1;" parent="1" vertex="1">
          <mxGeometry x="550" y="440" width="120" height="60" as="geometry" />
        </mxCell>
        <mxCell id="uGlacwfJj0JokIyBRGli-8" style="edgeStyle=orthogonalEdgeStyle;rounded=0;orthogonalLoop=1;jettySize=auto;html=1;exitX=0.25;exitY=1;exitDx=0;exitDy=0;entryX=0;entryY=0.5;entryDx=0;entryDy=0;" parent="1" source="uGlacwfJj0JokIyBRGli-5" target="uGlacwfJj0JokIyBRGli-3" edge="1">
          <mxGeometry relative="1" as="geometry" />
        </mxCell>
        <mxCell id="quuRfxYI1Brjr8cdpD_s-26" style="edgeStyle=orthogonalEdgeStyle;rounded=0;orthogonalLoop=1;jettySize=auto;html=1;entryX=0;entryY=0.5;entryDx=0;entryDy=0;" edge="1" parent="1" source="uGlacwfJj0JokIyBRGli-5" target="quuRfxYI1Brjr8cdpD_s-19">
          <mxGeometry relative="1" as="geometry">
            <Array as="points">
              <mxPoint x="520" y="220" />
              <mxPoint x="520" y="160" />
            </Array>
          </mxGeometry>
        </mxCell>
        <mxCell id="uGlacwfJj0JokIyBRGli-5" value="MongoDB router" style="rounded=0;whiteSpace=wrap;html=1;rotation=-90;" parent="1" vertex="1">
          <mxGeometry x="400" y="270" width="120" height="60" as="geometry" />
        </mxCell>
        <mxCell id="quuRfxYI1Brjr8cdpD_s-2" value="shard1_2" style="rounded=1;whiteSpace=wrap;html=1;" vertex="1" parent="1">
          <mxGeometry x="750" y="440" width="120" height="60" as="geometry" />
        </mxCell>
        <mxCell id="quuRfxYI1Brjr8cdpD_s-4" value="shard1_3" style="rounded=1;whiteSpace=wrap;html=1;" vertex="1" parent="1">
          <mxGeometry x="750" y="360" width="120" height="60" as="geometry" />
        </mxCell>
        <mxCell id="quuRfxYI1Brjr8cdpD_s-10" value="" style="group" vertex="1" connectable="0" parent="1">
          <mxGeometry x="750" y="510" width="120" height="80" as="geometry" />
        </mxCell>
        <mxCell id="quuRfxYI1Brjr8cdpD_s-3" value="shard1_1" style="rounded=1;whiteSpace=wrap;html=1;" vertex="1" parent="quuRfxYI1Brjr8cdpD_s-10">
          <mxGeometry y="20" width="120" height="60" as="geometry" />
        </mxCell>
        <mxCell id="quuRfxYI1Brjr8cdpD_s-9" value="Master" style="shape=process;whiteSpace=wrap;html=1;backgroundOutline=1;fillColor=#dae8fc;strokeColor=#6c8ebf;" vertex="1" parent="quuRfxYI1Brjr8cdpD_s-10">
          <mxGeometry x="10" width="50" height="20" as="geometry" />
        </mxCell>
        <mxCell id="quuRfxYI1Brjr8cdpD_s-16" style="edgeStyle=orthogonalEdgeStyle;rounded=0;orthogonalLoop=1;jettySize=auto;html=1;" edge="1" parent="1" source="quuRfxYI1Brjr8cdpD_s-19" target="quuRfxYI1Brjr8cdpD_s-20">
          <mxGeometry relative="1" as="geometry" />
        </mxCell>
        <mxCell id="quuRfxYI1Brjr8cdpD_s-17" style="edgeStyle=orthogonalEdgeStyle;rounded=0;orthogonalLoop=1;jettySize=auto;html=1;entryX=0;entryY=0.5;entryDx=0;entryDy=0;" edge="1" parent="1" source="quuRfxYI1Brjr8cdpD_s-19" target="quuRfxYI1Brjr8cdpD_s-21">
          <mxGeometry relative="1" as="geometry">
            <Array as="points">
              <mxPoint x="610" y="80" />
            </Array>
          </mxGeometry>
        </mxCell>
        <mxCell id="quuRfxYI1Brjr8cdpD_s-18" style="edgeStyle=orthogonalEdgeStyle;rounded=0;orthogonalLoop=1;jettySize=auto;html=1;entryX=0;entryY=0.5;entryDx=0;entryDy=0;" edge="1" parent="1" source="quuRfxYI1Brjr8cdpD_s-19" target="quuRfxYI1Brjr8cdpD_s-23">
          <mxGeometry relative="1" as="geometry">
            <Array as="points">
              <mxPoint x="610" y="250" />
            </Array>
          </mxGeometry>
        </mxCell>
        <mxCell id="quuRfxYI1Brjr8cdpD_s-19" value="shard2" style="rounded=1;whiteSpace=wrap;html=1;" vertex="1" parent="1">
          <mxGeometry x="550" y="130" width="120" height="60" as="geometry" />
        </mxCell>
        <mxCell id="quuRfxYI1Brjr8cdpD_s-20" value="shard2_2" style="rounded=1;whiteSpace=wrap;html=1;" vertex="1" parent="1">
          <mxGeometry x="750" y="130" width="120" height="60" as="geometry" />
        </mxCell>
        <mxCell id="quuRfxYI1Brjr8cdpD_s-21" value="shard2_3" style="rounded=1;whiteSpace=wrap;html=1;" vertex="1" parent="1">
          <mxGeometry x="750" y="50" width="120" height="60" as="geometry" />
        </mxCell>
        <mxCell id="quuRfxYI1Brjr8cdpD_s-22" value="" style="group" vertex="1" connectable="0" parent="1">
          <mxGeometry x="750" y="200" width="120" height="80" as="geometry" />
        </mxCell>
        <mxCell id="quuRfxYI1Brjr8cdpD_s-23" value="shard2_1" style="rounded=1;whiteSpace=wrap;html=1;" vertex="1" parent="quuRfxYI1Brjr8cdpD_s-22">
          <mxGeometry y="20" width="120" height="60" as="geometry" />
        </mxCell>
        <mxCell id="quuRfxYI1Brjr8cdpD_s-24" value="Master" style="shape=process;whiteSpace=wrap;html=1;backgroundOutline=1;fillColor=#dae8fc;strokeColor=#6c8ebf;" vertex="1" parent="quuRfxYI1Brjr8cdpD_s-22">
          <mxGeometry x="10" width="50" height="20" as="geometry" />
        </mxCell>
        <mxCell id="quuRfxYI1Brjr8cdpD_s-30" value="MongoDB" style="shape=cylinder3;whiteSpace=wrap;html=1;boundedLbl=1;backgroundOutline=1;size=15;" vertex="1" parent="1">
          <mxGeometry x="920" y="120" width="60" height="80" as="geometry" />
        </mxCell>
        <mxCell id="quuRfxYI1Brjr8cdpD_s-31" value="MongoDB" style="shape=cylinder3;whiteSpace=wrap;html=1;boundedLbl=1;backgroundOutline=1;size=15;" vertex="1" parent="1">
          <mxGeometry x="920" y="20" width="60" height="80" as="geometry" />
        </mxCell>
        <mxCell id="quuRfxYI1Brjr8cdpD_s-33" style="edgeStyle=orthogonalEdgeStyle;rounded=0;orthogonalLoop=1;jettySize=auto;html=1;entryX=0;entryY=0.5;entryDx=0;entryDy=0;entryPerimeter=0;" edge="1" parent="1" source="quuRfxYI1Brjr8cdpD_s-20" target="quuRfxYI1Brjr8cdpD_s-30">
          <mxGeometry relative="1" as="geometry" />
        </mxCell>
        <mxCell id="quuRfxYI1Brjr8cdpD_s-35" style="edgeStyle=orthogonalEdgeStyle;rounded=0;orthogonalLoop=1;jettySize=auto;html=1;entryX=0;entryY=0;entryDx=0;entryDy=52.5;entryPerimeter=0;" edge="1" parent="1" source="quuRfxYI1Brjr8cdpD_s-21" target="quuRfxYI1Brjr8cdpD_s-31">
          <mxGeometry relative="1" as="geometry" />
        </mxCell>
        <mxCell id="quuRfxYI1Brjr8cdpD_s-36" style="edgeStyle=orthogonalEdgeStyle;rounded=0;orthogonalLoop=1;jettySize=auto;html=1;entryX=0;entryY=0.5;entryDx=0;entryDy=0;entryPerimeter=0;" edge="1" parent="1" source="quuRfxYI1Brjr8cdpD_s-23" target="zA23MoTUsTF4_91t8viU-2">
          <mxGeometry relative="1" as="geometry" />
        </mxCell>
        <mxCell id="quuRfxYI1Brjr8cdpD_s-38" value="MongoDB" style="shape=cylinder3;whiteSpace=wrap;html=1;boundedLbl=1;backgroundOutline=1;size=15;" vertex="1" parent="1">
          <mxGeometry x="910" y="340" width="60" height="80" as="geometry" />
        </mxCell>
        <mxCell id="quuRfxYI1Brjr8cdpD_s-39" value="MongoDB" style="shape=cylinder3;whiteSpace=wrap;html=1;boundedLbl=1;backgroundOutline=1;size=15;" vertex="1" parent="1">
          <mxGeometry x="910" y="430" width="60" height="80" as="geometry" />
        </mxCell>
        <mxCell id="quuRfxYI1Brjr8cdpD_s-40" value="MongoDB" style="shape=cylinder3;whiteSpace=wrap;html=1;boundedLbl=1;backgroundOutline=1;size=15;" vertex="1" parent="1">
          <mxGeometry x="910" y="520" width="60" height="80" as="geometry" />
        </mxCell>
        <mxCell id="quuRfxYI1Brjr8cdpD_s-41" style="edgeStyle=orthogonalEdgeStyle;rounded=0;orthogonalLoop=1;jettySize=auto;html=1;entryX=0;entryY=0;entryDx=0;entryDy=52.5;entryPerimeter=0;" edge="1" parent="1" source="quuRfxYI1Brjr8cdpD_s-4" target="quuRfxYI1Brjr8cdpD_s-38">
          <mxGeometry relative="1" as="geometry" />
        </mxCell>
        <mxCell id="quuRfxYI1Brjr8cdpD_s-42" style="edgeStyle=orthogonalEdgeStyle;rounded=0;orthogonalLoop=1;jettySize=auto;html=1;entryX=0;entryY=0.5;entryDx=0;entryDy=0;entryPerimeter=0;" edge="1" parent="1" source="quuRfxYI1Brjr8cdpD_s-2" target="quuRfxYI1Brjr8cdpD_s-39">
          <mxGeometry relative="1" as="geometry" />
        </mxCell>
        <mxCell id="quuRfxYI1Brjr8cdpD_s-43" style="edgeStyle=orthogonalEdgeStyle;rounded=0;orthogonalLoop=1;jettySize=auto;html=1;entryX=0;entryY=0.5;entryDx=0;entryDy=0;entryPerimeter=0;" edge="1" parent="1" source="quuRfxYI1Brjr8cdpD_s-3" target="quuRfxYI1Brjr8cdpD_s-40">
          <mxGeometry relative="1" as="geometry" />
        </mxCell>
        <mxCell id="quuRfxYI1Brjr8cdpD_s-45" value="Api Layer" style="text;html=1;align=center;verticalAlign=middle;whiteSpace=wrap;rounded=0;rotation=-90;" vertex="1" parent="1">
          <mxGeometry x="200" y="390" width="60" height="30" as="geometry" />
        </mxCell>
        <mxCell id="quuRfxYI1Brjr8cdpD_s-46" value="" style="rounded=0;whiteSpace=wrap;html=1;" vertex="1" parent="1">
          <mxGeometry x="500" y="650" width="340" height="150" as="geometry" />
        </mxCell>
        <mxCell id="quuRfxYI1Brjr8cdpD_s-47" value="Caching Layer" style="text;html=1;align=center;verticalAlign=middle;whiteSpace=wrap;rounded=0;" vertex="1" parent="1">
          <mxGeometry x="500" y="650" width="100" height="30" as="geometry" />
        </mxCell>
        <mxCell id="quuRfxYI1Brjr8cdpD_s-48" value="Redis" style="rounded=1;whiteSpace=wrap;html=1;" vertex="1" parent="1">
          <mxGeometry x="520" y="690" width="120" height="60" as="geometry" />
        </mxCell>
        <mxCell id="quuRfxYI1Brjr8cdpD_s-49" style="edgeStyle=orthogonalEdgeStyle;rounded=0;orthogonalLoop=1;jettySize=auto;html=1;entryX=0;entryY=0.5;entryDx=0;entryDy=0;" edge="1" parent="1" source="zA23MoTUsTF4_91t8viU-3" target="quuRfxYI1Brjr8cdpD_s-48">
          <mxGeometry relative="1" as="geometry">
            <Array as="points">
              <mxPoint x="300" y="570" />
              <mxPoint x="440" y="570" />
              <mxPoint x="440" y="720" />
            </Array>
          </mxGeometry>
        </mxCell>
      </root>
    </mxGraphModel>
  </diagram>
</mxfile>
